<svg width="660" height="668" viewBox="0 0 660 668" fill="none" xmlns="http://www.w3.org/2000/svg">
<path fill-rule="evenodd" clip-rule="evenodd" d="M113.964 471.618C114 471.886 115.952 469.842 115.481 469.55C115.233 469.427 113.932 471.284 113.964 471.618ZM113.725 473.632C113.991 473.398 114.755 472.677 114.833 471.254C114.817 471.489 113.862 473.081 113.725 473.632ZM106.791 667.236C113.117 664.847 112.235 660.596 106.246 659.444C100.979 658.171 101.485 656.147 99.6556 651.832C98.5262 649.102 97.5151 649.686 99.6236 647.319C100.789 645.979 101.627 645.191 101.785 643.338C102.046 640.019 102.936 636.608 103.669 633.365C105.214 626.275 106.686 618.95 108.682 612.004C109.452 609.448 110.607 606.991 111.529 604.466C111.839 603.602 110.769 599.923 110.811 598.505C110.937 593.461 112.25 587.574 112.925 582.285C114.097 572.816 112.843 562.949 114.495 553.875C115.049 550.913 114.723 548.369 116.325 545.768C116.97 544.813 115.295 544.059 116.132 543.103C117.727 541.43 116.623 537.337 119.442 537.647C120.794 537.82 133.225 540.855 133.996 539.497C135.858 536.222 134.8 528.104 135 524.339C135.3 518.671 135.962 512.684 137.829 507.309C141.64 496.312 147.966 486.122 155.42 477.135C160.106 471.52 163.589 465.163 167.675 459.155C169.415 456.61 170.888 454.128 171.535 451.071C171.772 449.888 174.182 448.833 174.858 447.643C175.947 445.764 175.712 444.196 176.726 442.563C177.705 440.994 179.368 438.327 179.699 433.424C179.86 431.052 179.795 425.616 176.671 428.601C174.846 430.345 177.18 429.128 175.129 430.222C173.292 431.2 168.234 436.66 167.516 438.41C167.138 439.239 165.512 439.488 165.171 441.824C164.694 444.771 161.748 444.458 161.46 448.137C161.297 450.223 158.564 452.834 157.28 454.469C155.141 457.176 151.677 460.489 150.492 463.816C148.759 469.128 146.717 467.889 145.006 463.9C142.23 457.447 133.398 455.052 127.544 458.371C122.422 461.274 113.34 468.355 113.028 474.238C113.081 473.243 109.973 474.934 109.805 475.035C107.054 476.667 101.847 453.585 101.534 453.526C97.4488 452.921 94.1422 435.231 93.375 432.362C92.3237 428.251 90.7053 422.276 88.6714 418.885C88.5684 418.714 87.0127 419.468 86.7984 419.457C87.4721 419.49 79.2984 407.432 79.7791 414.123C78.0317 413.419 70.6323 405.971 70.6607 405.931C70.2416 406.495 71.8813 409.762 71.8292 410.828C71.0147 410.057 68.1142 405.091 67.019 406.135C65.3036 407.726 69.8308 414.15 71.0928 415.157C74.0786 417.515 77.3403 419.53 79.9756 422.362C77.1674 425.089 83.0443 431.554 83.2858 435.092C83.6102 441.572 86.6966 448.311 89.2148 454.153C91.0593 458.34 91.508 463.761 92.8292 468.281C93.4295 470.448 93.4034 472.573 93.9125 474.812C94.3884 476.965 96.3265 479.198 96.4259 481.322C96.7811 487.779 96.7326 493.512 95.2254 499.976C93.7373 506.251 90.7621 512.142 87.0376 517.382C85.3245 519.773 83.8529 522.516 83.7085 525.244C83.6955 525.512 74.7582 531.642 72.948 531.975C69.1122 532.756 64.6086 535.393 61.463 537.665C59.6753 538.971 56.6421 539.613 54.6852 538.157C53.0798 536.918 46.9472 540.701 44.9784 541.16C39.266 542.478 26.8351 544.749 22.2854 549.07C23.3331 548.026 22.5719 539.932 21.7657 538.615C20.281 536.026 18.3619 534.273 15.0624 535.459C10.5458 537.061 7.90336 538.935 5.25972 542.731C4.03438 544.401 4.53281 547.694 3.38679 549.42C3.1216 549.862 4.62633 552.531 4.65238 553.111C4.72459 554.715 3.98703 555.768 3.27905 557.071C2.61489 558.296 1.30904 559.646 0.596334 561.215C-1.31211 565.23 1.70211 569.66 4.80984 572.278C8.5924 575.441 10.9152 571.92 14.609 569.993C16.2878 569.148 16.6204 571.795 17.532 572.845C20.3473 576.193 22.1824 574.857 25.991 574.158C33.0269 572.87 39.5289 567.364 45.8604 564.228C50.3758 561.988 57.1122 557.244 62.1508 557C74.4551 556.41 87.3111 552.125 89.9393 568.09C91.8229 579.366 93.6284 590.018 93.0269 601.3C92.7677 606.228 89.9299 612.125 88.6678 616.928C86.7831 624.07 84.5336 631.373 81.98 638.32C80.9784 641.069 73.9342 653.896 76.8134 655.912C77.9583 656.663 76.9377 658.671 76.5044 660.139C74.371 666.517 86.2195 664.766 89.5924 665.421C95.4232 666.51 100.629 669.354 106.791 667.236Z" fill="white"/>
<path fill-rule="evenodd" clip-rule="evenodd" d="M392.671 147.206C396.99 146.196 404.344 147.619 406.284 148.875C411.434 152.221 417.216 158.156 420.182 159.945C416.472 151.172 417.411 143.85 407.256 142.046C403.007 141.295 399.335 142.195 393.621 143.512C394.029 142.199 395.138 139.853 395.435 139.469C396.264 138.42 396.583 137.531 396.435 136.946C396.388 136.752 396.688 136.183 396.869 135.928C396.511 136.014 395.73 136.18 395.54 136.09C393.718 135.264 392.799 138.061 391.788 138.464C390.205 139.085 388.354 138.929 386.997 139.838C386.757 139.993 386.504 140.153 386.248 140.32C382.772 132.858 375.906 124.256 362.497 122.064C355.642 120.929 333.106 127.892 322.415 131.112C331 133.363 349.122 131.463 359.52 132.17C370.764 132.93 375.158 139.634 378.381 149.381C378.02 150.125 377.688 150.928 377.344 151.808C376.486 152.61 375.986 153.65 375.109 154.448C374.514 154.996 373.546 155.313 372.939 155.855C372.398 156.613 372.645 157.129 373.432 157.484C372.934 158.086 373.391 158.422 374.281 158.623C374.235 159.427 374.621 159.669 375.215 159.658C375.422 160.866 376.033 160.956 376.817 159.955L383.055 154.84C388.939 152.26 390.588 149.538 392.671 147.206Z" fill="white"/>
<path fill-rule="evenodd" clip-rule="evenodd" d="M495.173 155.818C496.834 156.24 500.355 156.517 501.263 157.319C505.023 154.698 509.207 154.922 511.421 153.142C512.497 152.276 512.856 151.232 514.061 150.342C514.888 149.725 515.458 149.221 516.239 148.562C516.678 148.295 517.161 148.242 517.55 148.134C517.193 147.995 516.751 148.019 516.355 148.033C515.856 147.048 514.054 146.921 513.85 147.041C517.612 139.383 522.771 133.91 536.719 137.418C510.633 126.264 513.202 139.802 509.776 144.697C504.775 136.535 502.959 119.923 462.859 141.316C478.086 147.294 497.659 129.134 504.217 149.443C504.818 151.305 505.508 152.915 502.977 153.752C501.942 154.096 500.578 154.328 499.171 154.696C497.497 155.149 496.276 155.334 495.173 155.818Z" fill="white"/>
<path fill-rule="evenodd" clip-rule="evenodd" d="M632.086 109.054C634.885 106.067 638.803 105.722 640.405 103.754C641.184 102.798 641.292 101.817 642.178 100.811C642.788 100.121 643.186 99.571 643.745 98.8517C644.082 98.5359 644.502 98.4034 644.824 98.239C644.474 98.1822 644.092 98.2792 643.741 98.3608C643.107 97.5789 641.485 97.7871 641.327 97.9314C643.125 90.4859 646.226 84.1369 660 81.9662C648.243 81.7119 644.191 82.6748 640.652 85.6251C636.645 88.9634 638.346 93.9555 637.255 96.5757C633.946 93.118 631.267 87.1109 626.422 84.7745C620.76 82.0466 608.502 84.4291 593.287 90.1014C607.956 92.6767 623.074 84.299 634.617 99.6573C635.695 101.092 635.131 104.609 633.054 105.797C632.213 106.284 631.052 106.733 629.882 107.306C628.99 107.752 628.624 108.049 628.589 108.253C628.482 108.867 631.365 108.64 632.086 109.054Z" fill="white"/>
<path fill-rule="evenodd" clip-rule="evenodd" d="M244.54 239.184C247.339 236.197 251.256 235.852 252.859 233.883C253.638 232.928 253.747 231.946 254.63 230.941C255.242 230.25 255.64 229.7 256.199 228.98C256.535 228.666 256.957 228.532 257.278 228.368C256.928 228.311 256.546 228.408 256.196 228.491C255.561 227.709 253.938 227.916 253.782 228.06C255.579 220.616 258.682 214.266 272.455 212.095C260.696 211.842 256.645 212.805 253.107 215.754C249.098 219.093 250.801 224.085 249.71 226.706C246.4 223.248 243.721 217.241 238.876 214.903C233.214 212.175 220.957 214.559 205.74 220.231C220.41 222.805 235.528 214.428 247.071 229.787C248.149 231.222 247.585 234.74 245.508 235.927C244.667 236.414 243.507 236.861 242.336 237.436C241.444 237.881 241.08 238.179 241.042 238.381C240.936 238.997 243.819 238.769 244.54 239.184Z" fill="white"/>
<path fill-rule="evenodd" clip-rule="evenodd" d="M490.14 310.841C486.69 307.657 480.856 299.422 475.161 300.469C473.865 300.711 472.332 301.307 470.567 302.462C470.567 302.462 463.064 308.103 457.288 311.197C453.811 313.062 452.222 313.715 457.629 312.726C463.915 311.576 468.804 306.78 475.753 307.03C479.623 307.172 484.518 308.524 487.293 313.82C487.293 313.82 484.837 318.878 481.042 316.981C481.902 317.928 482.362 318.675 485.432 318.535C484.895 319.118 482.494 318.718 482.762 318.798C482.762 318.798 484.437 319.71 486.271 318.987C488.537 319.963 491.507 318.277 492.327 316.221C492.327 316.221 497.024 316.245 502.287 315.356C508.617 314.298 506.838 313.577 511.29 318.356C513.005 320.198 513.835 321.482 514.938 322.626C526.043 334.175 523.21 327.949 517.643 319.493C517.028 318.553 516.253 317.306 515.3 315.646C509.242 305.136 508.825 308.096 498.67 311.95C496.841 312.645 495.02 313.071 493.603 312.786C494.59 311.756 494.675 311.106 495.212 310.013C495.449 309.527 495.965 308.819 496.772 308.268C496.653 308.027 495.347 308.921 494.84 308.918C493.746 308.129 493.196 308.675 492.434 308.973C491.548 309.462 491.029 310.353 490.14 310.841Z" fill="white"/>
<path fill-rule="evenodd" clip-rule="evenodd" d="M559.459 10.4635C556.01 7.27899 550.177 -0.955596 544.482 0.0913212C543.185 0.333827 541.651 0.928866 539.887 2.08462C539.887 2.08462 532.384 7.72375 526.608 10.8196C523.132 12.6839 521.543 13.3369 526.949 12.3479C533.236 11.1981 538.126 6.4036 545.074 6.65321C548.944 6.79398 553.837 8.14606 556.614 13.4422C556.614 13.4422 554.157 18.5005 550.363 16.6043C551.222 17.5506 551.683 18.2971 554.751 18.1575C554.216 18.7407 551.814 18.3408 552.083 18.4189C552.083 18.4189 553.758 19.3333 555.592 18.6093C557.859 19.5853 560.828 17.8995 561.648 15.8447C561.648 15.8447 566.345 15.8684 571.607 14.98C577.938 13.9201 576.157 13.1997 580.61 17.9788C582.324 19.8219 583.157 21.1042 584.258 22.2481C595.363 33.7973 592.531 27.5714 586.963 19.1145C586.347 18.1752 585.574 16.9284 584.62 15.2675C578.563 4.75809 578.145 7.71788 567.991 11.572C566.162 12.2687 564.34 12.6934 562.925 12.4083C563.911 11.3779 563.995 10.7285 564.532 9.63423C564.77 9.1504 565.283 8.44183 566.093 7.89058C565.972 7.65044 564.668 8.54354 564.161 8.53999C563.066 7.75096 562.515 8.29869 561.755 8.59561C560.869 9.08418 560.349 9.97495 559.459 10.4635Z" fill="white"/>
<path fill-rule="evenodd" clip-rule="evenodd" d="M597.977 202.165C597.977 202.165 601.719 200.942 603.038 202.782L605.686 204.108L603.161 203.794C603.161 203.794 601.432 206.97 597.646 208.74C591.859 211.448 585.307 211.036 579.3 209.386C579.992 209.336 581.931 209.455 584.806 208.094C596.747 202.426 586.438 198.609 573.639 198.997C566.233 199.224 561.464 209.749 552.859 210.561C574.203 179.048 588.135 195.803 595.435 200.111C596.174 184.458 617.207 183.75 625.236 188.21C620.093 190.393 612.935 189.284 607.12 190.476C599.539 192.033 597.103 195.99 597.977 202.165Z" fill="white"/>
<path d="M249.342 233.388L172.986 434.193L378.861 149.727L377.902 149.034L177.273 426.252L250.449 233.808L249.342 233.388Z" fill="white"/>
<path d="M503.833 148.992L172.258 431.893L488.291 317.119L487.886 316.007L178.001 428.549L504.601 149.893L503.833 148.992Z" fill="white"/>
<path d="M634.271 99.1769L174.784 429.741L175.404 430.746C175.404 430.746 280.127 376.183 384.851 321.054C437.214 293.488 489.575 265.781 528.85 244.681C548.486 234.131 564.851 225.233 576.31 218.828C582.04 215.626 586.544 213.047 589.622 211.194C591.162 210.266 592.344 209.521 593.155 208.962C593.562 208.682 593.873 208.451 594.104 208.253C594.22 208.152 594.315 208.062 594.4 207.959C594.477 207.848 594.592 207.756 594.613 207.438H593.429H593.882L593.478 207.225C593.465 207.253 593.432 207.311 593.429 207.438H593.882L593.478 207.225L593.674 207.329L593.492 207.202L593.478 207.225L593.674 207.329L593.492 207.202L593.47 207.227C593.317 207.4 592.669 207.887 591.675 208.527C587.792 211.047 578.331 216.415 564.794 223.85C517.404 249.882 419.916 301.347 334.28 346.299C291.462 368.776 251.606 389.625 222.454 404.855C207.878 412.471 195.979 418.681 187.724 422.988C183.595 425.141 180.379 426.818 178.193 427.957C176.009 429.097 174.859 429.695 174.856 429.697L175.129 430.222L175.476 430.702L634.963 100.138L634.271 99.1769Z" fill="white"/>
<path d="M554.316 17.7564L174.695 429.821L175.565 430.623L555.187 18.5584" fill="white"/>
</svg>
