<?xml version="1.0" encoding="utf-8"?>
<!-- Generator: Adobe Illustrator 18.0.0, SVG Export Plug-In . SVG Version: 6.00 Build 0)  -->
<!DOCTYPE svg PUBLIC "-//W3C//DTD SVG 1.1//EN" "http://www.w3.org/Graphics/SVG/1.1/DTD/svg11.dtd" [
	<!ENTITY ns_flows "http://ns.adobe.com/Flows/1.0/">
	<!ENTITY ns_extend "http://ns.adobe.com/Extensibility/1.0/">
	<!ENTITY ns_ai "http://ns.adobe.com/AdobeIllustrator/10.0/">
	<!ENTITY ns_graphs "http://ns.adobe.com/Graphs/1.0/">
]>
<svg version="1.1" id="Layer_1" xmlns:x="&ns_extend;" xmlns:i="&ns_ai;" xmlns:graph="&ns_graphs;"
	 xmlns="http://www.w3.org/2000/svg" xmlns:xlink="http://www.w3.org/1999/xlink" xmlns:a="http://ns.adobe.com/AdobeSVGViewerExtensions/3.0/"
	 x="0px" y="0px" viewBox="0 0 2800 2800" enable-background="new 0 0 2800 2800" xml:space="preserve">
<g>
	<rect fill="#254167" width="2800" height="2800"/>
	<path fill="#2D4E72" d="M2336.9,1456.2c-5.5-13.2-10.7-26.6-15.5-40.3c-50.3-142.6-53.6-277.9-57.7-426.4
		c-3.6-134.6-89.9-255.8-180-352c-139.5-149-320.9-259.7-523.4-295.5c-169.6-30-347.2-6.1-504.6,62.7
		C926.6,461.1,821.3,555,719.8,650.5c-98.7,92.9-218.6,177.1-281.7,300.7c-78.9,154.5-11.8,297.4,57.3,439.7
		c46.5,95.7,66.7,194.2,64.3,300.1c-2,87.2-23.9,170.7-15.9,259c16.2,178.6,106.1,353.7,250.1,462.5
		c152.6,115.3,347,112.8,522.2,56.6c105.7-33.9,221.6-69,335.5-83.8c122.3-15.9,239.8,8.8,361.6,4.2
		c139.8-5.3,234.2-56.8,315.1-166.2c86.6-116.9,137.7-231.6,139.9-377.9C2470.6,1693,2391.3,1587.6,2336.9,1456.2z"/>
	<g>
		<path fill="#F7C30F" d="M588.4,502.2c-54.8-93.2-46.4-206.1,12.3-289c-36.3,3.9-72.5,15.5-106,35.2
			c-126.8,74.5-169.2,237.7-94.7,364.5S637.7,782,764.5,707.5c33.6-19.7,61.2-45.7,82.3-75.5C745.9,643,643.2,595.4,588.4,502.2z"/>
		<g>
			<path fill="#EAA80C" d="M770.6,664.9c-126.8,74.5-290,32.1-364.5-94.7c-27.9-47.5-39.4-100-36.2-151.1
				c-14.5,63.8-5.6,133,30.1,193.8c74.5,126.8,237.7,169.2,364.5,94.7c33.6-19.7,61.2-45.7,82.3-75.5c-11.1,1.2-22.2,1.7-33.3,1.5
				C800.6,645.1,786.3,655.7,770.6,664.9z"/>
		</g>
		<path fill-rule="evenodd" clip-rule="evenodd" fill="#654738" d="M517.4,440.9c-6.9,1.2-2.8,0.3-8.4,5.5
			c-6,5.6-18.4,12.8-26.3,15.1c-27.3,8.1-39.3-4.5-47.9-0.1c0.9,5.6,1,4.6,6.5,5.9c-0.4,0.7-1.2,1.7-2.6,3.2
			c-2.3,2.4-9.2,6-10.2,8.9c-1.1,3.2,2.8,5,5.5,4.4c3.4-0.8,7.5-5.6,10.1-7.8c3.3-2.8,4.7-5,5.1-6.7c1.9,0.4,3.8,0.8,5.7,1
			c-0.1,0.8,0.1,2-0.8,5.3c-0.8,3.2-5.2,9.7-4.7,12.7c0.6,3.3,4.9,3,6.9,1.3c2.6-2.3,4-8.5,5.2-11.7c1.1-3,1.5-5.2,1.5-6.8
			c18.6,0.7,33.8-6.3,51-18.9C524.5,444.6,517.5,441.1,517.4,440.9z"/>
	</g>
	<path fill="#FFFFFF" d="M2320.6,582.3c1.7-6.4,2.6-13.2,2.6-20.2c0-44.2-35.8-80.1-80.1-80.1c-11.1,0-21.7,2.3-31.3,6.3
		c-11.5-43.1-50.8-74.8-97.6-74.8c-48.4,0-88.8,34-98.7,79.4c-9.5-6.8-21.2-10.8-33.8-10.8c-29.3,0-53.6,21.6-57.8,49.8
		c-11.4-4.1-23.7-6.4-36.5-6.4c-40.9,0-76.5,22.9-94.6,56.6H2320.6z"/>
	<path fill="#FFFFFF" d="M1617.1,2505.1c-1.4-5.4-2.1-11-2.1-16.9c0-37,30-67,67-67c9.3,0,18.1,1.9,26.2,5.3
		c9.7-36.1,42.6-62.6,81.7-62.6c40.5,0,74.3,28.5,82.6,66.5c8-5.7,17.7-9,28.3-9c24.6,0,44.9,18.1,48.4,41.7
		c9.5-3.4,19.8-5.3,30.5-5.3c34.3,0,64.1,19.2,79.2,47.4H1617.1z"/>
	<path fill="#FFFFFF" d="M2543.8,1154.5c-8.1-10.1-20.5-16.5-34.5-16.5c-7.8,0-15.2,2-21.5,5.6c-7-20-26-34.4-48.4-34.4
		c-5.7,0-11.2,0.9-16.3,2.6c-3.5-10.2-13.2-17.5-24.6-17.5c-6.3,0-12,2.2-16.5,5.9c-9.7-19.4-29.7-32.8-52.9-32.8
		c-24.1,0-44.7,14.4-53.9,35c-5.5-2.3-11.6-3.6-18-3.6c-19.1,0-35.5,11.5-42.7,27.9c-1.3-0.2-2.7-0.3-4.1-0.3
		c-15.1,0-27.3,12.2-27.3,27.3c0,0.3,0,0.5,0,0.8H2543.8z"/>
	<path fill="#FFFFFF" d="M525.6,2405.7c-0.8-3.2-1.3-6.6-1.3-10c0-22,17.8-39.8,39.8-39.8c5.5,0,10.8,1.1,15.5,3.1
		c5.7-21.4,25.3-37.2,48.5-37.2c24,0,44.1,16.9,49,39.5c4.7-3.4,10.5-5.4,16.8-5.4c14.6,0,26.6,10.7,28.7,24.7
		c5.7-2,11.8-3.2,18.1-3.2c20.4,0,38,11.4,47,28.2H525.6z"/>
	<g>
		<g>
			<path fill-rule="evenodd" clip-rule="evenodd" fill="#A3DCDC" d="M2082.3,821.6c-2.8-13.5-1.6-10.8-10.2-18.7
				c-21.4-19.5-7.9-15.3-57.5-30.4c-48.2-14.7-48.5-11.8-96.8-18.2c-13.3-1.8-65-2.2-92.7-3.8c0,0,0,0,0,0c-1.6-0.1-3.4-0.3-5.5-0.4
				c-6-0.4-10.2-1-11.7-1.6c-4.3,0.7-1.8-1.6-3.3,1.2c-160.5-2.3-906.3,45.1-906.3,45.1c-32.2,12-67.4,17.8-97.7,31.4
				c-34.7,15.6-101.5,47.4-100,92.7c0.5,15.5,5.1,36.2,8.6,52.3c17.8,82.2,29.4,127.9,50.5,208l29.6,100.5
				c7.9,26,23.5,65.2,33.4,95.1c5.6,16.8,10.8,32.4,16.3,47.9l14.6,50.8c10.9,2.7,18.2-8.9,34.8-0.5c9,4.6,22.2,4.6,39,6.4
				c13.3,1.4,29.1,1,40.7,3.5c2.5,0.5,4.9,1,7.4,1.5c49.1,49.3,103.4,102,103.4,102s432.4-38.4,438.7-38.4
				c6.3,0,495.4-215.2,495.4-215.2l0,0c5.5,7.6,16.3,16.8,53.8,25c7.4-43,17.7-168.2,17.7-212.4c0-43.1,10.2-121.1,10.2-162.2
				C2094.8,903.6,2098.6,900.6,2082.3,821.6z"/>
			<path fill-rule="evenodd" clip-rule="evenodd" fill="#F9F9F9" d="M2146.6,1900.9c-2.7-18.9-22.6-59.9-30.9-73.8
				c-6.3-10.6-17.6-19.2-15.3-35.7c5.1-36.9,22.5-92.9,23.1-135.8c0.3-17.8-2.3-31.8-1.3-50.7c4.9-85.6-24.3-12.1,11.4-131.7
				c4.8-16.1,6.6-25.8,8.2-44.1c1.6-17.8,8.4-27.4-0.5-44.7c-6.7-13-10.8-20.3-28.7-23.8c-22.8-4.4-18.5,8.7-45.8-2.9
				c-59.3-13-51.9-28.5-62.2-36.1c-3.9-2.9-8-4.4-12.5-6.2c-35.5-14.2-45.1-20.6-95.2-22.9c-20.3-0.9-46.2,7.5-60.1,16.8
				c-20.4,9.3-60.1,46.3-77.5,63.4c-6.4,6.2-43.3,29.8-50.4,32.9c-7.7,7.8-40.6,23.2-53.9,29.5c-12.5,5.3-21.8,11.8-33.5,17.7
				c-9.9,4.9-25.1,11-33.5,16.6c-13.7,4-27.6,10.6-42.9,15.1c-15.1,4.4-28.5,7-43.4,12.4c-119.2,42.8-192.2,12.7-301.3,9.8
				l-28.6-2.7c-30.6,0.6-57.3-2.4-86-4c-42.4-2.3-78.1-9-117.8-17.3c-11.7-2.4-27.5-2-40.7-3.5c-16.8-1.8-30-1.8-39-6.4
				c-16.6-8.4-23.8,3.3-34.8,0.5c-2.2,11.8-29.8-0.4-39.1,64.3c-5.5,38.1-0.9,60.8,5.7,94.6c7.6,39.1-30.1,100.8-29.9,175.3
				c0.1,33.3,7.1,59.3,16.5,88.2c4.1,12.6,9.6,26.7,10.6,41.8c1.4,20.7-24.1,80.9,9.3,103.7c24.6,16.8,17,6.7,10.4,54.7
				c-4.4,31.8,1,58.4,21,82.9c15.2,18.6,47.7,18.6,54.2,23.6c3.7,2.8,2.5,7.1,17.4,9.6c14.6,2.5,87.8,2.3,103.5,0.4
				c20.1-2.5,109.8-24.9,128.6-30.1c88.6-24.4,134.5-37.3,230.1-31.4c43.8,2.7,113.9,2.9,151.9,6.6c31.8,3.1,68,1.5,98.7,5.8
				c31.4,4.3,62.7,6.1,93.7,11.1c56.5,9,75.8,17,135.4,21.2c18.1,1.3,33.4-1.3,50.7-1.3c24,0,147.5,5.9,157.5-25
				c3-9.5-1.9-6.6,5.8-17.8c3.8-5.4,7.8-8.9,10.8-14.5c3.6-6.8,4-10.9,9.1-18c3.3-4.6,7.9-8.8,10.9-14.4c12-22.3,26.1-76,30.2-103.3
				C2150.7,1974.2,2150.5,1928.7,2146.6,1900.9z M864.4,1484.7c-6-0.8-3.6,0.2-5.9-5.4C868,1480,865,1475.8,864.4,1484.7z"/>
			<path fill-rule="evenodd" clip-rule="evenodd" fill="#F9F9F9" d="M1868.4,991.5c-2.3-41.5-14.5-88.8-26.4-125.8
				c-12.6-39.2-21.8-80.8-37.5-115.8c1.8-3.2-1-0.7,3.5-1.5c-12.7-8.6-4.1-3.8-16.7-24.7c-11.9-19.9-37.4-61.8-53.9-71.1
				c-26.7-15-115.1-17.3-147.5-13.6c-133.7,14.9-264.1,51.2-397.6,63.5c-38.3,4.8-70.9,13.5-111.3,17.3
				c-68.7,6.3-96.4,16.5-152.8,39.7c-28.1,11.6-24.9,28.7-30,35.2c-0.2,9.2-2.7,11.6-4.2,20.1c-1.2,6.9-1.4,16.4-2,23.7
				c-4.5,51.5-2.3,81.4,11.4,131c7,25.3,15.2,48.9,24.9,73.3c18.1,45.4,14.9,51.9,41.3,105.6c7.8,15.9,6.5,20.6,11.2,37.9
				c2.5,9.2,10.9,23.6,15.3,33.6c5.4,12.3,5.5,25,14.3,34.7c21.3,23.5,48.5,9.2,82.2,12.4c13.9,1.3,30.2,2.7,44.4,4.4
				c0,0,73.7,11.2,202.2-16.7c128.5-27.9,356.8-106.3,392.8-109.5c38.8-1.3,117.2-12.3,129.6-52c3.3-10.6,6.6-18.8,8.4-30.6
				C1873.2,1041,1869.6,1013.6,1868.4,991.5z"/>
			<path fill-rule="evenodd" clip-rule="evenodd" fill="#E2E2E2" d="M1020.3,887.1c0,0,71.8-30.8,200.9-34.3
				C1221.2,852.7,1133.4,812.2,1020.3,887.1z"/>
			<path fill-rule="evenodd" clip-rule="evenodd" fill="#E2E2E2" d="M1098.5,1189.7c0,0,34.1-70.3,129.3-157.5
				C1227.8,1032.2,1134.9,1059.1,1098.5,1189.7z"/>
			<path fill-rule="evenodd" clip-rule="evenodd" fill="#E2E2E2" d="M1009.3,1095.6c0,0,77.3-79,244.1-153.3
				C1253.3,942.2,1116.7,936.7,1009.3,1095.6z"/>
			<path fill-rule="evenodd" clip-rule="evenodd" fill="#E2E2E2" d="M1730.3,760.2c-0.7-0.6-1.4-1.2-2.1-1.8
				c-21.6-16.2-58.7-10.8-83.4-21.5c-20.8-9-74.8-30.7-76.9-55l3.2,60.7c-9.9,24.8-19.9,53.5-27.1,80.3c-4.3,16.2-3.9,33.9-6.9,50.5
				c-3.3,18-10.9,35.2-12.5,53.5c-3.2,35.1-2.3,75.8,4.3,110.3c4.9,25.8,6.1,61.2,27.8,79.4c20.8,17.5,50.1,19.5,74.9,13.4
				c17.2-4.2,47.5-12.7,37.8-36.7c-6.2-15.2-25.8-17.2-36.4-30.3c-11.5-14.3-5.6-26.3-3.5-42c2-14.7-3.2-25.6-10.1-38.2
				c-14.6-26.8-21.1-64.3-10.8-93.6c14.6-41.7,43.9-6.9,74.5-15.5c17.1-4.8,40.1-17.4,53.6-28.4c12.2-9.9,28.5-35.5,25.6-52.2
				c-1.9-10.7-11.3-10.8-18.2-16.5C1737.4,771.2,1735.7,765.2,1730.3,760.2z"/>
			<path fill-rule="evenodd" clip-rule="evenodd" fill="#F5936B" d="M1317.5,1363.4l2.3-6.2c20.7,6.1,25.6,47.6,11.1,57.9
				c-2.6-4.3-4-11.4-4.7-16.6c-0.4-3-0.4-6.9-0.9-9.7l-3.6-7.9c-4.9,21-18.6,45.2-32.4,62.2c-4.1,5-2.3,3.9-7.8,7
				C1285.5,1421,1312.7,1378.4,1317.5,1363.4L1317.5,1363.4z"/>
			<path fill-rule="evenodd" clip-rule="evenodd" fill="#F5936B" d="M1823.6,1290c-4.7-3.4-10.4-10.5-12.7-16.7
				c-8.3-9.3-23-38.8-29.7-51.1c-11.1-20.5-23.5-30.4-33.6-48l-9.2-12.1c-4.4-4-9.8-12-13.4-16.8c-9.7-9.8-16.3-22.1-32.7-35.2
				c-15.2-12.2-45.4-28.1-65.6-34c-41-11.9-49-36.6-69.4-27.2c0.8,16.4-4,42.5-11.9,52.6c-3.6,14.4-17.7,32.1-23.7,43.9
				c-5.2,5.2-17.3,13.4-24.9,16.6c-3.4,6.3-6.9,7.2-10.3,15.6c-2.9,7.2-2.8,13.7-5.2,20.7c-5.9,33.5-40.4,52-61.8,67.7
				c-11,8.1-17.1,15.5-35.5,28.7c-11.8,8.5-24.3,20.8-36.2,29.1c-12.7,4.7-27.4,30.8-27.5,31.3c-2.4-4.5-1.2-1.9-2.4-7.1
				c-0.4-1.9-0.5-2.7-1-4.5l-1.6-4c1-13.5-0.8-37.1-1.2-52.2c-0.4-17.1,0.7-33.4,1-50.4c0.3-13,1.3-28.1,0.6-40.9
				c-1.1-19.5,0.6-21-14.6-26.7c-7.5-0.9-2.4-0.1-4.3,2.1l-48.1,14.9c-8.8,2.9-16.3,4.5-24.4,7.9c-6.9,2.9-14,7.6-22.1,8.6
				c-7,3.6-10.7,6.3-17.5,9.1c-7.6,3.2-12.9,4.5-12.4,14.2c0.4,9.8,8.4,28.2,9.5,42.5c2.8,17.7,7.1,29.2,7.4,49l0.4,5.2
				c3.3,10.6,2.4,29.1,3.9,40.9c1.7,14.4,4.9,27.9,6.3,41.5l0.4,4.9l11.1,42.8l4,9.5c5,10.6,9.7,19.1,22.6,20.9l8.9,4.7
				c15.5,5.3,28.8-6.1,42.2-7.8c15.4-1.9,29.8-5.9,44.5-9.9c52.2-14.2,142-57.4,187-85c8.6-5.3,25.9-19,33.5-21.6
				c10.9,9.1,12.8,17.9,19.4,32.4c6.2,13.5,15.7,22.1,14.5,38l-0.4,4.7c-2.7,10.9-3,19.7,0.5,30.5c8.4-5.6,23.6-11.7,33.5-16.6
				c11.7-5.8,21.1-12.4,33.5-17.7c13.2-6.3,46.2-21.8,53.9-29.5c7.1-3.2,44-26.7,50.4-32.9c17.4-17.1,57.2-54.1,77.5-63.4
				C1832.1,1298.5,1828.7,1298.4,1823.6,1290z"/>
			<path fill-rule="evenodd" clip-rule="evenodd" fill="#F6D4A3" d="M1557.4,1048.8c-0.9-5.9,0.5-2.8-3.7-5.5
				c-13.9,7.4-31.4-27.5-31.5-31.4c-0.3-8.1,16.8-37.6,11.9-52.5l-13.1-20.9c-26-18.5-36.6,42.9-40.8,51.6
				c-8.2,1.3-10.9,0.3-18.6-14.1c-6.3-11.9-13.9-34.2-19.7-47.8c-3.5-8.2-8.3-16.8-4.8-25.8l-16.4,0.1c-19.6-1.5-35-2.6-55.8-3.4
				c-19.5-0.8-37-3.7-55.8-3.6c-26.6,0-80.4,9.9-91.6,25.8c-4.6,14.5-8.5,35.1-8,52c1.1,39.2,14.2,28.4-15.3,67.4
				c-4.1,5.5-10.7,10.4-8.2,19.9c4.8,18.2,37,13.7,45.4,14.3c2.7,3.2,3.5,4.2,4.4,8.3l5.4,1.6c-0.2,4.6-1.4,7.8-0.4,12.7
				c17.9,5.1,41-11.9,60.7,1.5c-0.1,0.3-16,36.1,7.7,34.9c13.2-0.7,0.9-4.7,12.5-6.7l0.3,7.6c6.2-5,5.4-3.6,13.3-0.1
				c7,3.1,8.1,3.9,16,4.9c11.2,1.3,24,3.5,35.2-0.1c13.5-1.3,16.6,0.2,28.9-3.9c9.1-3.1,13.7-7,21.6-9.9
				c11.9,0.5,25.2,10.5,31.9,15.8c5,4,9.3,6.1,14,9.6c4.2,3.2,7.6,8.5,14,11.3c7.6-3.2,19.8-11.5,24.9-16.6
				c6-11.8,20.1-29.5,23.7-43.9C1553.3,1091.3,1558.2,1065.2,1557.4,1048.8z"/>
			<path fill-rule="evenodd" clip-rule="evenodd" fill="#F3C189" d="M1386.4,1139c13.5-1.3,16.6,0.2,28.9-3.9
				c9.1-3.1,13.7-7,21.6-9.9c0.4-0.3,0.9-0.6,1.1-0.8c0.2-0.2,0.8-0.6,1.1-0.8l6.6-7c2.8-4,3.5-6.1,7.4-9.6
				c25.2-22.1,28.2-38.2,39.4-62c3.9-8.2,4.1-2,7.4-9.3c5-10.9-13-18.2-13.4-33.8c-0.3-13.3,13.9-36.4,23.5-42.7
				c9.1,28.1-2.7,58.9,6,80.6c4.9,12.2,9.7,18.2,14.5,31.2c6.8,18,14.9,25.3,14.8,30.6c7.8-10.1,12.7-36.2,11.9-52.6
				c-0.9-5.9,0.5-2.8-3.7-5.5c-13.9,7.4-31.4-27.5-31.5-31.4c-0.3-8.1,16.8-37.6,11.9-52.5l-13.1-20.9c-26-18.5-36.6,42.9-40.8,51.6
				c-8.2,1.3-10.9,0.3-18.6-14.1c-6.3-11.9-13.9-34.2-19.7-47.8c-3.5-8.2-8.3-16.8-4.8-25.8l-16.4,0.1l-8.4-0.3
				c7.1,31-2.8,24.6,20.4,67.4c6.4,11.8,8.8,16.6,16.3,25.9c6.4,8,4.5,29.1,3.7,40.1c-3.1,40.7-22.8,94.8-71.2,100.1L1386.4,1139
				L1386.4,1139z"/>
			<path fill-rule="evenodd" clip-rule="evenodd" fill="#F3C189" d="M1202.3,1202.9c8.1-1,15.2-5.7,22.1-8.6c8-3.4,15.6-5,24.4-7.9
				l48.1-14.9c1.9-2.2-3.2-3,4.3-2.1c6.4-12.8,18.2-22.5,20.7-34.9l-0.3-7.6c-11.6,2,0.7,6.1-12.5,6.7c-23.7,1.2-7.8-34.6-7.7-34.9
				c-19.7-13.3-42.8,3.6-60.7-1.5c-1-4.9,0.2-8.1,0.4-12.7l-5.4-1.6c-13.3,11.6-20.2,32.2-25.3,54.9
				C1206.6,1154.4,1195.6,1189.6,1202.3,1202.9L1202.3,1202.9z"/>
			<path fill-rule="evenodd" clip-rule="evenodd" fill="#7A5644" d="M1553.6,1043.3c3.1-8.9,4.4-17.8,7.3-26.3
				c2.9-8.5,6.6-15.5,10.2-23.4c-9.1-10.5-7.8-7.9-12.5-23.6c-3.7-12.6-8.2-14.1-11.6-25.3l-21.9-15.4c-20.7-17.1-59.3-28.4-88-27.1
				c-3.5,9.1,1.3,17.6,4.8,25.8c5.9,13.6,13.4,35.9,19.7,47.8c7.6,14.4,10.4,15.4,18.6,14.1c4.2-8.8,14.8-70.1,40.8-51.6l13.1,20.9
				c4.9,15-12.2,44.5-11.9,52.5C1522.3,1015.8,1539.7,1050.7,1553.6,1043.3L1553.6,1043.3z"/>
			<path fill-rule="evenodd" clip-rule="evenodd" fill="#DA765C" d="M1655.1,1435.1c13.2-6.3,46.2-21.8,53.9-29.5
				c-7.8-0.8-4.2-3-13.7-18c-17-26.9-61.4-72.7-98.3-59.2c-7.9,2.9-14.4,8-20.1,12c-6.8,4.8-14.4,10.4-16.5,18.6
				c14.4-2.3,12.4-3.8,27.8,0.5c24.6,6.9,30,0.3,30.1,40.8c0.1,15.2-5,25.1-4.5,34.9c13.4-1.8,29.8-30.5,33.2-52.2l14.8,10.8
				C1662.3,1412.8,1650.7,1427.6,1655.1,1435.1L1655.1,1435.1z"/>
			<path fill-rule="evenodd" clip-rule="evenodd" fill="#DA765C" d="M1521.8,1145.3c-5.2,5.2-17.3,13.4-24.9,16.6
				c-3.4,6.3-6.9,7.2-10.3,15.6c-2.9,7.2-2.8,13.7-5.2,20.7c-5.9,33.5-40.4,52-61.8,67.7c-11,8.1-17.1,15.5-35.5,28.7
				c-11.8,8.5-24.3,20.8-36.2,29.1c-1.4,3.4-2.4,5-3.4,9.2c7-3.5,11.2-7.1,19.4-11c30.1-14.5,28.3-10.5,61.2-31.8
				c43.1-27.9,37.3-21.3,62.9-62.1c22.8-36.4,9.4-29.8,33.6-57.6c3.4-4,3.7-4.2,7.6-7.6c3.5-3,4.4-4.5,8.7-8.2
				c17.7-15.8,47.2-18.5,56.3-68.5c-3.4,3.6-9.2,13.5-12.9,18.8c-17.2,25-44.5,27.2-57.7,43.3L1521.8,1145.3L1521.8,1145.3z"/>
			<g>
				<path fill-rule="evenodd" clip-rule="evenodd" fill="#E2E2E2" d="M1078.9,1709.7c10.3,5.4,24.6,8.4,36.7,12.5
					c35.6,12.2,83.9,28.6,120.8,31.4c57.4,4.4,124.1-7.7,175.5-22.3c25.7-7.3,51.4-15.5,75.9-23.8c77.4-26.1,104.6-37,171.6-81.9
					l28.1-22.8c-6,1.8-22.4,13.1-30.2,17.4c-10.6,5.9-20.7,11.4-31.9,17.1c-58.3,29.8-149.7,58.2-213.8,76.8
					c-84.4,24.5-165.9,36-252.4,13.5C1140.7,1722.9,1097.9,1710.5,1078.9,1709.7L1078.9,1709.7z"/>
				<path fill-rule="evenodd" clip-rule="evenodd" fill="#E2E2E2" d="M1449.4,1599.4c20-1,130.9-38.3,148.8-45
					c30.3-11.3,106.8-46,131.9-64.1l85-60.2c10.4-6.8,17.2-12.9,29-20c44-26.5,114.5,11,156.6,21.1c-4.9-4.1-27.8-13.3-34-15.9
					c-12.8-5.4-23.6-10.6-35.9-14.9c-23.8-8.3-58.6-15.9-85.9-6.3c-20.9,7.4-45.5,27-61.5,38.2c-23.9,16.7-64.7,48.5-89.7,60.7
					c-72.3,35.4-134.7,62-208.9,91.9C1475.9,1588.5,1457.6,1594.6,1449.4,1599.4L1449.4,1599.4z"/>
				<path fill-rule="evenodd" clip-rule="evenodd" fill="#E2E2E2" d="M1517.7,1804.5c16.9-2.5,48.6-15.5,63-22.7
					c18.3-9.2,41.9-17.3,58-26.4c18.7-10.6,35-21.5,52.2-32.4c16.9-10.7,35.2-20.8,53-31.5c33.9-20.4,75.8-40,118.5-50.4
					c56.3-13.8,97.6-0.5,150.7,5l-67.7-17c-79.7-14.7-139.1,6.6-206,46.2l-107.8,66.3c-22.3,14.4-77.7,45.4-105.7,57.9
					L1517.7,1804.5L1517.7,1804.5z"/>
				<path fill-rule="evenodd" clip-rule="evenodd" fill="#E2E2E2" d="M1158.7,1854.9c63.7,0,114.1-7.8,174-23.6l48.4-14.4
					l-97.4,14.4c-136.9,16.1-180.1,5.6-316-25.2c-20.1-4.6-47.3-10.9-69.6-10.3l61.5,18.3
					C1023.9,1836.4,1087.7,1854.9,1158.7,1854.9L1158.7,1854.9z"/>
			</g>
			<path fill-rule="evenodd" clip-rule="evenodd" fill="#DA765C" d="M1317.5,1363.4l0.4-5.8l-7.7-0.3l0.6-7.6
				c3.4-1.2-2.2,0.2,1.7,0.3c2,0,0.6,1.1,2.9-0.3l-0.1-10.4c1-13.5-0.8-37.1-1.2-52.2c-0.4-17.1,0.7-33.4,1-50.4
				c0.3-13,1.3-28.1,0.6-40.9c-1.1-19.5,0.6-21-14.6-26.7c-7.5-0.9-2.4-0.1-4.3,2.1c18.3,4.2,7.1,25.6,4.9,37.7
				c-3.2,16.9-4.1,30.6-4.3,49.3c-0.1,19.5,1.2,32.6,3.1,50.7c2.4,22.7,6.3,37.7,7.5,49c-10.5,7.9-21.8,12.9-23.8,28.1
				C1298.5,1386.5,1311.5,1374.2,1317.5,1363.4L1317.5,1363.4z"/>
			<path fill-rule="evenodd" clip-rule="evenodd" fill="#DA765C" d="M1317.5,1363.4c-4.8,15-32,57.6-36,86.7c5.5-3,3.8-1.9,7.8-7
				c13.8-17,27.4-41.1,32.4-62.2l3.6,7.9c0.5,2.8,0.5,6.6,0.9,9.7c0.7,5.2,2.1,12.3,4.7,16.6c14.5-10.3,9.5-51.8-11.1-57.9
				L1317.5,1363.4L1317.5,1363.4z"/>
			<g>
				<path fill-rule="evenodd" clip-rule="evenodd" fill="#F5936B" d="M1753.9,773.1c-13.6-21-32.6-11.9-47.9-4.6
					c-10.5,5-12.9,5.2-19.7,14.6c-9.7-8.5-30-4.9-43.2-10.7c-9.1-4-22.5-18.5-27.8-27.9c-8.3-14.9-12.2-20-21.3-32.8
					c-9.7-13.5-10.5-22.3-26.1-29.6c-24.4-11.5-68.4-11.4-97.5-7.1c-30.8,4.6-98.8,21.9-129.8,34.1c-34.9,13.7-32.6,29.1-48.2,34.7
					c-51.4,18.3-41.7,72.2-91.8,100.8c-30,17.1-19,46.6-21.2,56.5c-1.1,5-14.5,34.3,17.8,29.7c8.3-1.2,12.2-6.6,20.1-9.5
					c11.3-15.9,65-25.7,91.6-25.8c18.8,0,36.2,2.8,55.8,3.6c20.8,0.9,36.2,1.9,55.8,3.4l16.4-0.1c28.7-1.3,67.3,10,88,27.1
					l21.9,15.4c3.4,11.3,7.9,12.7,11.6,25.3c4.6,15.7,3.3,13.1,12.5,23.6c13.8-0.9,19.6-0.5,25.7-10.1c7.2-11.3,2.5-21.3-2-29.2
					c22.7-23.1-1.5-29.2-10.7-40.5c2.3-4.3,22.3-25.2,5.5-42.3c-4.6-4.7-26.1-16.8-14.7-43.4c2.9-6.8,11.1-8.4,19.5-10.9
					c32.6-9.7,5.6-10.1,52.7-9.5c11,0.1,19.8-1.9,30.4-2.3c4.4,7.8,6.8,14.7,13.3,19.1c22.2,14.7,52.9-0.4,61.7-25.5
					C1756,792.1,1759.4,781.5,1753.9,773.1z"/>
				<path fill-rule="evenodd" clip-rule="evenodd" fill="#DA765C" d="M1546.9,944.7c3.4,11.3,7.9,12.7,11.6,25.3
					c4.6,15.7,3.3,13.1,12.5,23.6c13.8-0.9,19.6-0.5,25.7-10.1c7.2-11.3,2.5-21.3-2-29.2c22.7-23.1-1.5-29.2-10.7-40.5
					c2.3-4.3,22.3-25.2,5.5-42.3c-4.6-4.7-26.1-16.8-14.7-43.4c2.9-6.8,11.1-8.4,19.5-10.9c32.6-9.7,5.6-10.1,52.7-9.5
					c11,0.1,19.8-1.9,30.4-2.3c4.4,7.8,6.8,14.7,13.3,19.1c22.2,14.7,52.9-0.4,61.7-25.5c-1.5-1-3.5-1.8-4.5-2.5
					c-2.9,4.9-30.7,31.1-53.7,14.2c-6.3-4.6-8.5-3.7-10.4-9.7c-0.8-2.6-0.5-2.7,0.1-4.4c0.5-1.5,4-5.9,5.2-9.1
					c-13.9,5.2-6.7,9.8-27.7,7.3c-52.7-6.3-57.8,4.7-85.9,25.3l-7.2-13.7c-1.9,11.7,2.3,10.2-3.9,21.5c-4.1,7.6-5.2,10.7-5.5,20.3
					c-15.5-4.8-59.1-24.2-68.5-38.1c-4.5-6.5-9.3-13.7-11.9-22.3c-1,1.4-4.4,1.5-0.9,12.9c9.7,31.5,21.4,35.8,54.9,50.1
					c26.6,11.3,39.6,20.6,45.4,45.9c4.5,20-1.9,9.7-2.6,23.9c4.8,11.3,10.9,7.5,13.7,16c3,9-4.6,12.1-6.5,21.7
					c5.8-1.9,6.4-1.3,9.5-4.5c-0.3,3.4,2.9,23.2-14.4,26c-9.6-9.9,3-5.1-20.3-28.7C1553.2,946.8,1553.2,946.6,1546.9,944.7
					L1546.9,944.7z"/>
				<path fill-rule="evenodd" clip-rule="evenodd" fill="#DA765C" d="M1200.1,886c3,2.5,4.5,3.5,12.5,2.4
					c27.4-3.7,51.5-17.6,66.1-20.2c25.3-4.5,79,1.3,94.1-0.2c-8-6.8-29.7-12.8-41.9-16.5c-15.9-4.7-35.4-5.5-53.2-2.7
					C1243.6,854.1,1231.3,870.4,1200.1,886L1200.1,886z"/>
				<path fill-rule="evenodd" clip-rule="evenodd" fill="#DA765C" d="M1576.9,950.1c-3.6-9.6-14.7-22.6-22.2-30.2
					c-3.1-3.2-3.8-4.9-7-8.2c-13.3-13.8-56.6-47-75.8-52.6c-13.1-3.8-46.7-9.2-58.4-2.4c18.5,5.1,32.8,4.2,51.4,12.9
					c22.3,10.4,39.5,24.1,57.8,38.4C1531.7,914.9,1570.8,948.2,1576.9,950.1L1576.9,950.1z"/>
				<path fill-rule="evenodd" clip-rule="evenodd" fill="#DA765C" d="M1226.1,839.4c63.6-10.2,57.9-22.1,128.5-15.5
					c8.1,0.8,15.1,1.3,23.1,2.6l21.5,0.4c-28-10.4-54.5-22.1-90.8-18.2C1283.2,811.5,1237.4,824.3,1226.1,839.4L1226.1,839.4z"/>
				<path fill-rule="evenodd" clip-rule="evenodd" fill="#DA765C" d="M1452.2,831.4c5.3,6,22.1,14.8,29.3,19.8
					c17.9,12.4,73.5,54.1,86.5,57.3c-1.8-7.2-17.4-22.4-22.3-26.9C1523.4,861,1485.1,834.8,1452.2,831.4L1452.2,831.4z"/>
			</g>
			<path fill-rule="evenodd" clip-rule="evenodd" fill="#654738" d="M1224.6,980.2c6.8-1.8,2.7-0.5,7.8-6.2
				c5.5-6.1,17.2-14.3,24.9-17.3c26.5-10.4,39.5,1.1,47.7-4c-1.5-6.1-1.4-4.3-8.8-5.7c-29-5.5-47.8,2.9-69.2,21.6
				C1217.1,977.2,1224.4,980,1224.6,980.2L1224.6,980.2z"/>
			<path fill-rule="evenodd" clip-rule="evenodd" fill="#654738" d="M1226.3,993.4l-0.1,9.9c17.3,7.2,39.1-0.8,55.8-6.6
				c7.4-2.6,12.5-2,13.6-10.2c-7.6-3.6-23.3,10.8-50.8,12.4C1224.7,1000.1,1237.6,994.5,1226.3,993.4L1226.3,993.4z"/>
			<g>
				<g>
					<path fill-rule="evenodd" clip-rule="evenodd" fill="#8EBFBF" d="M1738.5,1162l9.2,12.1l187.8-22.7
						c-26.4-8.9-69.6-11.5-100.3-7.4c-17.7,2.4-33.9,3.6-50.8,6.9C1759.1,1155.8,1754.1,1158.8,1738.5,1162L1738.5,1162z"/>
					<path fill-rule="evenodd" clip-rule="evenodd" fill="#8EBFBF" d="M1810.9,1273.3c2.3,6.2,8,13.3,12.7,16.7
						c6.9-5.8,104.6-37.1,106.1-37.9c3.7-2.1,1.3-0.5,3.4-2.5c-15.6-2.3-52.6,0-67.8,4.2C1845.2,1259.3,1828.2,1267.7,1810.9,1273.3
						L1810.9,1273.3z"/>
					<path fill-rule="evenodd" clip-rule="evenodd" fill="#8EBFBF" d="M1189.6,1322.8l-0.4-5.2c-19.9-2.3-39.4-7.8-60.2-10.9
						c-56.1-8.4-108.2-12.7-164.7-2.7c-10.3,1.8-21.1,6.4-29.7,8c44.2-7.8,82.9-5.7,129.5-4.4
						C1105.7,1308.8,1147.8,1320,1189.6,1322.8L1189.6,1322.8z"/>
					<path fill-rule="evenodd" clip-rule="evenodd" fill="#8EBFBF" d="M1200.2,1410.1l-0.4-4.9c-38.6-6-59.6-4.1-98.6-3.2
						c-21.4,0.5-72.3,9.3-87.9,16.7c29.1-0.8,59.5-7.2,89.7-8.2C1136.3,1409.3,1166.3,1408.3,1200.2,1410.1L1200.2,1410.1z"/>
					<path fill-rule="evenodd" clip-rule="evenodd" fill="#8EBFBF" d="M1215.3,1462.4l-4-9.5l-39.1-0.1c-29.5,0-93.3,3.7-116.8,15
						C1085.9,1468.3,1193.5,1455.2,1215.3,1462.4L1215.3,1462.4z"/>
					<path fill-rule="evenodd" clip-rule="evenodd" fill="#8EBFBF" d="M1587.6,1438.9l0.4-4.7c-30.7,0.8-92.5,22.3-120.5,36.8
						l-29.9,15.8c-3.6,2.5-1.6,0.8-3.8,3.5l74.7-27.3C1528.1,1455.6,1565.8,1442,1587.6,1438.9L1587.6,1438.9z"/>
					<path fill-rule="evenodd" clip-rule="evenodd" fill="#8EBFBF" d="M1172,1504l28.6,2.7l46.2-18.6l-8.9-4.7
						C1228,1488.9,1186.4,1503.2,1172,1504L1172,1504z"/>
				</g>
			</g>
			<path fill-rule="evenodd" clip-rule="evenodd" fill="#6BC7D5" d="M864.4,1484.7c0.6-8.9,3.7-4.8-5.9-5.4
				C860.8,1484.9,858.4,1484,864.4,1484.7L864.4,1484.7z"/>
			<path fill-rule="evenodd" clip-rule="evenodd" fill="#E2E2E2" d="M2095.2,1360.8c0,0,53.2,5.4,24.1,74.5
				c-29.1,69.2-5.6,90.8-229.3,90.1c0,0-60-6.4-232.9,130.1c0,0,220.2-146.8,409.4-56.1c0,0,45.5,128.6-40,155.2
				c-52.7,16.3-107.2,19.1-158.9,39.9c-114.7,46.2-198,129-299.3,194.7c-28.3,18.4-63.1,35-97,40.3c18.3-0.4,50,5.1,73.7,2.7
				c45.8-4.7,91.9-29.6,133.9-47.3c262-111,387.6-147.4,407.6-114.6c20,32.8-28.3,235.8-280.6,262c-252.3,26.2-372.1-64.5-666.3,56
				c10-2.5,18-4.6,22.2-5.8c88.6-24.4,134.5-37.3,230.1-31.4c43.8,2.7,113.9,2.9,151.9,6.6c31.8,3.1,68,1.5,98.7,5.8
				c31.4,4.3,62.7,6.1,93.7,11.1c56.5,9,75.8,17,135.4,21.2c18.1,1.3,33.4-1.3,50.7-1.3c31.6,0,63.2,1.3,94.7-1.8
				c14.9-1.4,35.5-2.2,48.7-10.3c28.1-17.4,41.2-55.1,53.6-84c13.2-30.5,22.3-64,27.2-96.9c4.1-27.3,3.9-72.8-0.1-100.6
				c-2.7-18.9-22.6-59.9-30.9-73.8c-6.3-10.6-17.6-19.2-15.3-35.7c5.1-36.9,22.5-92.9,23.1-135.8c0.3-17.8-2.3-31.8-1.3-50.7
				c4.9-85.6-24.3-12.1,11.4-131.7c4.8-16.1,6.6-25.8,8.2-44.1c1.6-17.8,8.4-27.4-0.5-44.7c-6.7-13-10.8-20.3-28.7-23.8
				c-5.3-1-9.1-1.1-12.2-0.8C2100.4,1359.8,2095.2,1360.8,2095.2,1360.8z"/>
		</g>
		<g>
			<path fill="#F9F9F9" d="M890.1,501.3l96.3-75.8l0.2-0.5l-60.2-19l4.1-12.9l80.4,25.3l-2.9,9.4l-96,75.5l-0.2,0.5l66.6,21
				l-4.1,12.9l-86.9-27.4L890.1,501.3z"/>
			<path fill="#F9F9F9" d="M985.7,531.4l54.4-38.2c5.4-3.5,10.2-6.5,15.5-9.9l0.1-0.4l-46.3-14.6l3.9-12.4l65,20.5l-3.1,9.7
				l-53.8,37.6c-5.2,3.6-10,7-15.2,10l-0.1,0.4l49.8,15.7l-3.9,12.4l-69.2-21.8L985.7,531.4z"/>
			<path fill="#F9F9F9" d="M1061.3,555.2l54.4-38.2c5.4-3.5,10.2-6.5,15.5-9.9l0.1-0.4l-46.3-14.6l3.9-12.4l65,20.5l-3.1,9.7
				l-53.8,37.6c-5.2,3.6-10,7-15.2,10l-0.1,0.4l49.8,15.7l-3.9,12.4l-69.2-21.8L1061.3,555.2z"/>
			<path fill="#F9F9F9" d="M1142.9,580.8c2-6.4,7.9-9.7,14.1-7.8c6.2,1.9,9,7.9,6.9,14.4c-2,6.4-7.7,9.8-14.3,7.7
				C1143.6,593.2,1140.9,587.1,1142.9,580.8z"/>
			<path fill="#F9F9F9" d="M1179.5,592.3c2-6.4,7.9-9.7,14.1-7.8c6.2,1.9,9,7.9,6.9,14.4c-2,6.4-7.7,9.8-14.3,7.7
				C1180.2,604.7,1177.5,598.6,1179.5,592.3z"/>
			<path fill="#F9F9F9" d="M1216,603.8c2-6.4,7.9-9.7,14.1-7.8c6.2,1.9,9,7.9,6.9,14.4c-2,6.4-7.7,9.8-14.3,7.7
				C1216.7,616.3,1214,610.2,1216,603.8z"/>
		</g>
	</g>
	<g>
		<polygon fill="#F7C30F" points="1444.4,451.4 1448.2,473.4 1468.5,482.7 1448.8,493.2 1446.2,515.4 1430.1,499.8 1408.2,504.2 
			1418.1,484.1 1407.1,464.7 1429.2,467.8 		"/>
		<polygon fill="#F7C30F" points="2299,1713.9 2302.8,1735.9 2323.1,1745.2 2303.4,1755.7 2300.8,1777.9 2284.8,1762.3 
			2262.8,1766.7 2272.7,1746.6 2261.7,1727.2 2283.9,1730.3 		"/>
		<polygon fill="#F7C30F" points="2507.3,2289.4 2509.8,2311.6 2529.6,2322.1 2509.3,2331.4 2505.4,2353.4 2490.3,2337 
			2468.2,2340.1 2479.1,2320.6 2469.3,2300.6 2491.2,2305 		"/>
		<polygon fill="#F7C30F" points="2525.1,716.5 2536.7,735.6 2559,736.9 2544.4,753.8 2550.1,775.4 2529.5,766.8 2510.7,778.9 
			2512.5,756.6 2495.2,742.4 2517,737.3 		"/>
		<polygon fill="#F7C30F" points="1456,2534 1459.8,2556 1480.1,2565.3 1460.3,2575.8 1457.7,2598 1441.7,2582.4 1419.8,2586.8 
			1429.6,2566.7 1418.7,2547.3 1440.8,2550.4 		"/>
		<polygon fill="#F7C30F" points="1075.4,184.8 1088.8,202.6 1111.2,201.7 1098.3,220 1106.1,240.9 1084.7,234.4 1067.2,248.2 
			1066.9,225.9 1048.3,213.5 1069.4,206.3 		"/>
		<polygon fill="#F7C30F" points="280.8,2256.9 284.3,2278.9 304.5,2288.5 284.6,2298.7 281.7,2320.9 265.9,2305.1 243.9,2309.2 
			254,2289.3 243.3,2269.6 265.4,2273.1 		"/>
		<polygon fill="#F7C30F" points="1045.1,2387.6 1069.5,2409.5 1101.3,2401.8 1088,2431.8 1105.2,2459.7 1072.6,2456.3 
			1051.4,2481.2 1044.5,2449.2 1014.2,2436.7 1042.5,2420.3 		"/>
		<polygon fill="#F7C30F" points="2376.9,199.7 2383.4,231.8 2413.5,244.7 2385,260.8 2382.1,293.4 2358,271.2 2326,278.6 
			2339.6,248.8 2322.8,220.7 2355.4,224.4 		"/>
		<polygon fill="#F7C30F" points="357.1,838.9 374.1,866.9 406.8,868.7 385.5,893.6 393.9,925.2 363.6,912.6 336.1,930.4 
			338.8,897.7 313.4,877 345.2,869.5 		"/>
		<circle fill="#346489" cx="1608.6" cy="223.1" r="5.6"/>
		<circle fill="#346489" cx="2666.6" cy="838.9" r="5.6"/>
		<circle fill="#346489" cx="2272" cy="750.1" r="5.6"/>
		<circle fill="#346489" cx="1933" cy="329.3" r="5.6"/>
		<circle fill="#346489" cx="304.5" cy="1713.9" r="5.6"/>
		<circle fill="#346489" cx="479.5" cy="2288.9" r="5.6"/>
		<circle fill="#346489" cx="2197.2" cy="1455.8" r="5.6"/>
		<circle fill="#346489" cx="2608.7" cy="2196.1" r="5.6"/>
		<circle fill="#346489" cx="2123.4" cy="2693" r="5.6"/>
		<circle fill="#346489" cx="790.4" cy="353" r="5.6"/>
		<circle fill="#346489" cx="97" cy="562.2" r="5.6"/>
		<circle fill="#346489" cx="1714.3" cy="192.1" r="3.1"/>
		<circle fill="#346489" cx="2129" cy="49" r="3.1"/>
		<circle fill="#346489" cx="2016.2" cy="100.5" r="3.1"/>
		<circle fill="#346489" cx="131.6" cy="1495" r="3.1"/>
		<circle fill="#346489" cx="360.1" cy="2508.2" r="3.1"/>
		<circle fill="#346489" cx="2608.7" cy="199.7" r="3.1"/>
		<circle fill="#346489" cx="2468.4" cy="1525.9" r="3.1"/>
		<circle fill="#346489" cx="2292.4" cy="2534" r="3.1"/>
		<circle fill="#346489" cx="2535.5" cy="985.9" r="3.1"/>
		<circle fill="#346489" cx="2237" cy="2089.9" r="3.1"/>
		<circle fill="#346489" cx="2617" cy="2698.6" r="3.1"/>
		<circle fill="#346489" cx="1709" cy="2481.2" r="3.1"/>
		<circle fill="#346489" cx="672.8" cy="2606.3" r="3.1"/>
		<circle fill="#346489" cx="934.6" cy="137" r="3.1"/>
		<circle fill="#346489" cx="573" cy="996" r="3.1"/>
		<circle fill="#346489" cx="304.5" cy="223.1" r="3.1"/>
		<circle fill="#346489" cx="235" cy="1028.6" r="3.1"/>
		<circle fill="#346489" cx="664.4" cy="1795.7" r="8.3"/>
		<circle fill="#346489" cx="2617" cy="451.4" r="8.3"/>
		<circle fill="#346489" cx="243.3" cy="716.5" r="8.3"/>
	</g>
	<path fill="#FFFFFF" d="M906.5,1363c-15.9-19.8-40.2-32.4-67.6-32.4c-15.3,0-29.7,4-42.2,11c-13.6-39.2-50.9-67.4-94.8-67.4
		c-11.1,0-21.9,1.8-31.9,5.2c-6.9-20-25.9-34.4-48.2-34.4c-12.3,0-23.5,4.3-32.3,11.6c-18.9-38.1-58.2-64.3-103.7-64.3
		c-47.1,0-87.7,28.2-105.7,68.7c-10.8-4.5-22.7-7.1-35.2-7.1c-37.4,0-69.5,22.5-83.6,54.7c-2.6-0.4-5.3-0.6-8.1-0.6
		c-29.6,0-53.5,24-53.5,53.5c0,0.5,0,1.1,0,1.6H906.5z"/>
	<g>
		<g>
			<path fill="#FFFFFF" d="M1739.4,471.8c-1.5,0-3.1-0.6-4.2-1.8l-28.8-28.8c-2.3-2.3-2.3-6.1,0-8.5c2.3-2.3,6.1-2.3,8.5,0
				l28.8,28.8c2.3,2.3,2.3,6.1,0,8.5C1742.5,471.2,1741,471.8,1739.4,471.8z"/>
			<path fill="#FFFFFF" d="M1710.6,471.8c-1.5,0-3.1-0.6-4.2-1.8c-2.3-2.3-2.3-6.1,0-8.5l28.8-28.8c2.3-2.3,6.1-2.3,8.5,0
				c2.3,2.3,2.3,6.1,0,8.5l-28.8,28.8C1713.7,471.2,1712.2,471.8,1710.6,471.8z"/>
		</g>
		<g>
			<path fill="#FFFFFF" d="M2306.8,962.6c-1.5,0-3.1-0.6-4.2-1.8l-28.8-28.8c-2.3-2.3-2.3-6.1,0-8.5c2.3-2.3,6.1-2.3,8.5,0
				l28.8,28.8c2.3,2.3,2.3,6.1,0,8.5C2309.9,962,2308.4,962.6,2306.8,962.6z"/>
			<path fill="#FFFFFF" d="M2278,962.6c-1.5,0-3.1-0.6-4.2-1.8c-2.3-2.3-2.3-6.1,0-8.5l28.8-28.8c2.3-2.3,6.1-2.3,8.5,0
				c2.3,2.3,2.3,6.1,0,8.5l-28.8,28.8C2281.1,962,2279.6,962.6,2278,962.6z"/>
		</g>
		<g>
			<path fill="#FFFFFF" d="M699.3,1591.8c-1.5,0-3.1-0.6-4.2-1.8l-28.8-28.8c-2.3-2.3-2.3-6.1,0-8.5c2.3-2.3,6.1-2.3,8.5,0
				l28.8,28.8c2.3,2.3,2.3,6.1,0,8.5C702.3,1591.2,700.8,1591.8,699.3,1591.8z"/>
			<path fill="#FFFFFF" d="M670.4,1591.8c-1.5,0-3.1-0.6-4.2-1.8c-2.3-2.3-2.3-6.1,0-8.5l28.8-28.8c2.3-2.3,6.1-2.3,8.5,0
				c2.3,2.3,2.3,6.1,0,8.5l-28.8,28.8C673.5,1591.2,672,1591.8,670.4,1591.8z"/>
		</g>
	</g>
</g>
</svg>
