<svg width="512" height="512" viewBox="0 0 512 512" fill="none" xmlns="http://www.w3.org/2000/svg">
<g clip-path="url(#clip0)">
<path d="M256 73.7493C247.168 73.7493 240 66.5813 240 57.7493V16C240 7.168 247.168 0 256 0C264.832 0 272 7.168 272 16V57.7493C272 66.5813 264.832 73.7493 256 73.7493Z" fill="#1D1752"/>
<path d="M396.181 131.819C392.085 131.819 387.989 130.261 384.875 127.125C378.624 120.875 378.624 110.741 384.875 104.491L414.4 74.9653C420.651 68.7147 430.784 68.7147 437.035 74.9653C443.285 81.216 443.285 91.3493 437.035 97.6L407.509 127.125C404.373 130.24 400.277 131.819 396.181 131.819V131.819Z" fill="#1D1752"/>
<path d="M496 272H454.251C445.419 272 438.251 264.832 438.251 256C438.251 247.168 445.419 240 454.251 240H496C504.832 240 512 247.168 512 256C512 264.832 504.832 272 496 272Z" fill="#1D1752"/>
<path d="M425.707 441.707C421.611 441.707 417.515 440.149 414.4 437.013L384.875 407.488C378.624 401.237 378.624 391.104 384.875 384.853C391.125 378.603 401.259 378.603 407.509 384.853L437.035 414.379C443.285 420.629 443.285 430.763 437.035 437.013C433.899 440.149 429.803 441.707 425.707 441.707Z" fill="#1D1752"/>
<path d="M86.2933 441.707C82.1973 441.707 78.1013 440.149 74.9867 437.013C68.736 430.763 68.736 420.629 74.9867 414.379L104.512 384.853C110.763 378.603 120.896 378.603 127.147 384.853C133.397 391.104 133.397 401.237 127.147 407.488L97.6213 437.013C94.4853 440.149 90.3893 441.707 86.2933 441.707V441.707Z" fill="#1D1752"/>
<path d="M57.7493 272H16C7.16799 272 -7.62939e-06 264.832 -7.62939e-06 256C-7.62939e-06 247.168 7.16799 240 16 240H57.7493C66.5813 240 73.7493 247.168 73.7493 256C73.7493 264.832 66.5813 272 57.7493 272Z" fill="#1D1752"/>
<path d="M115.819 131.819C111.723 131.819 107.627 130.261 104.512 127.125L74.9867 97.6C68.736 91.3493 68.736 81.216 74.9867 74.9653C81.2373 68.7147 91.3707 68.7147 97.6213 74.9653L127.147 104.491C133.397 110.741 133.397 120.875 127.147 127.125C123.989 130.24 119.915 131.819 115.819 131.819V131.819Z" fill="#1D1752"/>
<path d="M320 448V474.667C320 495.147 303.147 512 282.667 512H229.333C211.413 512 192 498.347 192 468.48V448H320Z" fill="#1D1752"/>
<path d="M350.08 139.947C315.093 111.573 269.013 100.48 224 110.08C167.467 121.813 121.6 167.893 109.867 224.427C97.92 282.453 119.68 340.053 166.187 375.253C178.773 384.64 187.52 399.147 190.507 416V416.213C190.933 416 191.573 416 192 416H320C320.427 416 320.64 416 321.067 416.213V416C324.053 399.787 333.653 384.853 348.373 373.333C384.427 344.747 405.333 302.08 405.333 256C405.333 210.773 385.28 168.533 350.08 139.947ZM336 266.667C327.253 266.667 320 259.413 320 250.667C320 218.24 293.76 192 261.333 192C252.587 192 245.333 184.747 245.333 176C245.333 167.253 252.587 160 261.333 160C311.253 160 352 200.747 352 250.667C352 259.413 344.747 266.667 336 266.667Z" fill="#1D1752"/>
<path d="M190.507 416H192C191.573 416 190.933 416 190.507 416.213V416Z" fill="#1D1752"/>
<path d="M321.067 416V416.213C320.64 416 320.427 416 320 416H321.067Z" fill="#1D1752"/>
</g>
<defs>
<clipPath id="clip0">
<rect width="512" height="512" fill="white"/>
</clipPath>
</defs>
</svg>
