<svg width="683" height="200" viewBox="0 0 683 200" fill="none" xmlns="http://www.w3.org/2000/svg">
<path d="M120.496 115.632C124.144 115.632 128.032 112.128 132.16 105.12L143.104 111.6C141.28 114.768 139.504 117.456 137.776 119.664C136.144 121.872 133.648 123.984 130.288 126C126.928 128.016 123.184 129.024 119.056 129.024C113.008 129.024 107.92 126.48 103.792 121.392C99.664 116.208 97.6 109.248 97.6 100.512C97.6 90.528 99.376 81.216 102.928 72.576C104.848 68.064 107.584 64.416 111.136 61.632C114.784 58.752 118.48 57.312 122.224 57.312C126.064 57.312 129.136 57.936 131.44 59.184C133.744 60.336 135.568 61.68 136.912 63.216C138.352 64.656 139.6 66.816 140.656 69.696C141.712 72.576 142.432 74.928 142.816 76.752C143.296 78.576 143.68 81.216 143.968 84.672C144.352 89.28 144.544 93.456 144.544 97.2C136.864 99.312 126.928 101.232 114.736 102.96C115.024 106.8 115.696 109.872 116.752 112.176C117.808 114.48 119.056 115.632 120.496 115.632ZM123.664 71.424C121.552 71.424 119.632 73.536 117.904 77.76C116.272 81.984 115.312 86.88 115.024 92.448C120.112 91.392 124.528 90.384 128.272 89.424C128.272 77.424 126.736 71.424 123.664 71.424Z" fill="#e55a99"/>
<path d="M151.771 86.544L179.707 85.248C182.587 85.248 185.227 85.392 187.627 85.68L188.203 101.232C185.323 100.944 182.491 100.8 179.707 100.8L153.499 102.096L151.771 86.544Z" fill="#e55a99"/>
<path d="M237.051 63.072C238.299 58.368 238.923 54.432 238.923 51.264C238.923 48.096 238.059 45.504 236.331 43.488C234.603 41.376 232.347 40.32 229.562 40.32C226.875 40.32 224.618 41.664 222.794 44.352C220.97 47.04 220.059 50.112 220.059 53.568C220.059 60.288 223.899 66.048 231.579 70.848C239.259 75.84 244.491 79.44 247.275 81.648C250.059 83.856 252.026 85.872 253.178 87.696C256.058 92.4 257.499 97.248 257.499 102.24C257.499 110.88 254.571 117.792 248.715 122.976C242.955 128.064 236.427 130.608 229.131 130.608C220.491 130.608 213.243 126.96 207.387 119.664C203.163 114.384 199.275 107.808 195.723 99.936L209.691 93.168C211.899 98.928 214.634 103.824 217.898 107.856C221.258 111.792 224.811 113.76 228.555 113.76C230.955 113.76 233.114 112.992 235.035 111.456C236.955 109.92 237.915 107.616 237.915 104.544C237.915 101.376 236.714 98.448 234.314 95.76C231.914 93.072 228.699 90.336 224.667 87.552C220.635 84.768 217.515 82.512 215.307 80.784C213.099 78.96 210.65 76.656 207.962 73.872C202.874 68.496 200.331 61.632 200.331 53.28C200.331 44.832 203.259 37.776 209.115 32.112C214.971 26.352 221.931 23.472 229.995 23.472C238.059 23.472 244.827 26.592 250.299 32.832C255.867 39.072 258.651 45.504 258.651 52.128C258.651 58.656 257.403 64.272 254.907 68.976L237.051 63.072Z" fill="#e55a99"/>
<path d="M288.402 115.632C292.05 115.632 295.938 112.128 300.066 105.12L311.01 111.6C309.186 114.768 307.41 117.456 305.682 119.664C304.05 121.872 301.554 123.984 298.194 126C294.834 128.016 291.09 129.024 286.962 129.024C280.914 129.024 275.826 126.48 271.698 121.392C267.57 116.208 265.506 109.248 265.506 100.512C265.506 90.528 267.282 81.216 270.834 72.576C272.754 68.064 275.49 64.416 279.042 61.632C282.69 58.752 286.386 57.312 290.13 57.312C293.97 57.312 297.042 57.936 299.346 59.184C301.65 60.336 303.474 61.68 304.818 63.216C306.258 64.656 307.506 66.816 308.562 69.696C309.618 72.576 310.338 74.928 310.722 76.752C311.202 78.576 311.586 81.216 311.874 84.672C312.258 89.28 312.45 93.456 312.45 97.2C304.77 99.312 294.834 101.232 282.642 102.96C282.93 106.8 283.602 109.872 284.658 112.176C285.714 114.48 286.962 115.632 288.402 115.632ZM291.57 71.424C289.458 71.424 287.538 73.536 285.81 77.76C284.178 81.984 283.218 86.88 282.93 92.448C288.018 91.392 292.434 90.384 296.178 89.424C296.178 77.424 294.642 71.424 291.57 71.424Z" fill="#e55a99"/>
<path d="M351.789 57.456C364.461 57.456 370.797 68.016 370.797 89.136C370.797 100.272 370.173 112.08 368.925 124.56L352.077 122.976C353.133 112.032 353.661 100.992 353.661 89.856C353.661 78.624 352.077 73.008 348.909 73.008C347.373 73.008 345.405 76.896 343.005 84.672C340.605 92.352 339.117 99.888 338.541 107.28C338.733 111.216 339.117 118.32 339.693 128.592L322.845 127.008C321.789 113.472 321.261 101.568 321.261 91.296C321.261 81.024 321.549 71.808 322.125 63.648L332.781 64.8C332.973 65.568 333.693 68.688 334.941 74.16C340.509 63.024 346.125 57.456 351.789 57.456Z" fill="#e55a99"/>
<path d="M412.82 57.456C425.492 57.456 431.828 68.016 431.828 89.136C431.828 100.272 431.205 112.08 429.957 124.56L413.108 122.976C414.164 112.032 414.693 100.992 414.693 89.856C414.693 78.624 413.108 73.008 409.94 73.008C408.404 73.008 406.436 76.896 404.036 84.672C401.636 92.352 400.149 99.888 399.573 107.28C399.765 111.216 400.148 118.32 400.724 128.592L383.876 127.008C382.82 113.472 382.293 101.568 382.293 91.296C382.293 81.024 382.58 71.808 383.156 63.648L393.812 64.8C394.005 65.568 394.725 68.688 395.973 74.16C401.541 63.024 407.156 57.456 412.82 57.456Z" fill="#e55a99"/>
<path d="M446.78 57.312L463.196 58.896V128.016L446.78 126.432V57.312ZM447.932 31.968L464.06 33.84L462.62 49.968L446.492 47.952L447.932 31.968Z" fill="#e55a99"/>
<path d="M479.947 127.152C479.563 117.168 479.371 102.384 479.371 82.8C479.371 63.216 480.091 42.528 481.531 20.736L498.379 22.032C496.939 45.552 496.219 68.208 496.219 90C506.203 77.808 513.691 65.952 518.683 54.432L530.203 64.512C525.883 74.592 520.123 84.576 512.923 94.464C520.411 103.2 526.363 111.36 530.779 118.944L519.835 129.312C514.651 121.248 506.779 111.696 496.219 100.656C496.219 111.312 496.411 120.672 496.795 128.736L479.947 127.152Z" fill="#e55a99"/>
<path d="M547.985 110.736C548.689 112.976 549.042 115.856 549.042 119.376C549.042 122.832 548.594 125.712 547.698 128.016L534.737 126.96C535.313 122.096 535.602 118.384 535.602 115.824C535.602 113.2 535.569 111.12 535.505 109.584L547.985 110.736Z" fill="#e55a99"/>
<path d="M577.147 101.424C577.275 100.528 577.339 99.376 577.339 97.968C577.339 96.56 577.051 95.12 576.475 93.648C575.899 92.176 575.163 91.44 574.267 91.44C572.475 91.44 571.163 93.52 570.331 97.68C569.563 101.776 569.179 105.552 569.179 109.008C569.179 114.832 570.363 117.744 572.731 117.744C574.651 117.744 577.371 114.384 580.891 107.664L587.995 112.752C586.267 117.424 584.091 121.136 581.467 123.888C578.907 126.64 575.803 128.016 572.155 128.016C568.507 128.016 565.211 126.576 562.267 123.696C559.387 120.816 557.947 116.432 557.947 110.544C557.947 104.272 558.971 98.032 561.019 91.824C562.171 88.432 563.867 85.648 566.107 83.472C568.411 81.296 571.323 80.208 574.843 80.208C578.363 80.208 581.275 82 583.579 85.584C585.947 89.168 587.131 93.136 587.131 97.488C587.131 99.344 586.843 100.944 586.267 102.288L577.147 101.424Z" fill="#e55a99"/>
<path d="M602.349 108.72C602.349 115.952 603.948 119.568 607.148 119.568C608.556 119.568 609.741 117.552 610.701 113.52C611.661 109.424 612.141 105.52 612.141 101.808C612.141 93.616 610.797 89.52 608.109 89.52C606.381 89.52 604.973 91.728 603.885 96.144C602.861 100.496 602.349 104.688 602.349 108.72ZM591.117 107.856C591.117 101.904 592.333 96.08 594.765 90.384C596.045 87.504 597.837 85.168 600.141 83.376C602.509 81.52 605.133 80.592 608.013 80.592C610.893 80.592 613.356 81.264 615.404 82.608C617.516 83.888 619.117 85.616 620.205 87.792C622.317 92.08 623.372 96.752 623.372 101.808C623.372 108.784 621.932 114.992 619.052 120.432C616.236 125.808 612.268 128.496 607.148 128.496C596.46 128.496 591.117 121.616 591.117 107.856Z" fill="#e55a99"/>
<path d="M650.172 83.184C654.076 83.184 657.052 84.528 659.1 87.216C662.428 82.352 665.724 79.92 668.988 79.92C677.884 79.92 682.332 86.608 682.332 99.984C682.332 107.536 681.692 116.688 680.412 127.44L669.276 126.48C670.492 114.512 671.1 105.392 671.1 99.12C671.1 92.848 670.076 89.712 668.028 89.712C667.132 89.712 666.076 91.152 664.86 94.032C663.644 96.912 662.844 100.112 662.46 103.632C662.332 111.632 662.076 118.768 661.692 125.04L650.46 123.984C650.972 114.96 651.228 107.536 651.228 101.712C651.228 95.888 650.428 92.976 648.828 92.976C647.804 92.976 646.46 94.768 644.796 98.352C643.196 101.872 642.044 105.584 641.34 109.488C641.404 115.376 641.692 121.456 642.204 127.728L630.972 126.672C630.268 117.648 629.916 109.424 629.916 102C629.916 94.576 630.108 87.632 630.492 81.168L638.46 81.744C638.844 83.472 639.388 86.608 640.092 91.152C643.484 85.84 646.844 83.184 650.172 83.184Z" fill="#e55a99"/>
<path d="M176.568 156.577C156.639 164.857 134.229 164.901 114.268 156.701C94.3062 148.501 78.4284 132.728 70.1272 112.851C61.8261 92.9753 61.7815 70.6244 70.0034 50.7155C78.2253 30.8066 94.0401 14.9707 113.969 6.69145C116.522 5.47376 120.184 4.14538 122.737 2.92769C102.736 -2.26856 81.5564 -0.511509 62.6908 7.90913C50.3769 12.8374 39.1708 20.1631 29.7268 29.4583C20.2827 38.7536 12.79 49.8322 7.68615 62.0474C2.58226 74.2625 -0.030553 87.3693 0.000269554 100.603C0.0310921 113.836 2.70493 126.931 7.86567 139.122C13.0264 151.313 20.5706 162.357 30.0578 171.608C39.5451 180.86 50.7852 188.134 63.1219 193.005C75.4586 197.876 88.6448 200.247 101.91 199.98C115.176 199.712 128.255 196.812 140.385 191.447C160.772 183.299 177.63 168.249 188 148.939C184.502 151.923 180.665 154.486 176.568 156.577Z" fill="#e55a99"/>
</svg>
