<svg width="38" height="40" viewBox="0 0 188 200" fill="none" xmlns="http://www.w3.org/2000/svg">
<path d="M176.568 156.577C156.639 164.857 134.229 164.901 114.268 156.701C94.3062 148.501 78.4284 132.728 70.1272 112.851C61.8261 92.9753 61.7815 70.6244 70.0034 50.7155C78.2253 30.8066 94.0401 14.9707 113.969 6.69145C116.522 5.47376 120.184 4.14538 122.737 2.92769C102.736 -2.26856 81.5564 -0.511509 62.6908 7.90913C50.3769 12.8374 39.1708 20.1631 29.7268 29.4583C20.2827 38.7536 12.79 49.8322 7.68615 62.0474C2.58226 74.2625 -0.030553 87.3693 0.000269554 100.603C0.0310921 113.836 2.70493 126.931 7.86567 139.122C13.0264 151.313 20.5706 162.357 30.0578 171.608C39.5451 180.86 50.7852 188.134 63.1219 193.005C75.4586 197.876 88.6448 200.247 101.91 199.98C115.176 199.712 128.255 196.812 140.385 191.447C160.772 183.299 177.63 168.249 188 148.939C184.502 151.923 180.665 154.486 176.568 156.577Z" fill="#1d1752"/>
</svg>
